<svg xmlns="http://www.w3.org/2000/svg" viewBox="0 0 256 256" role="img" aria-labelledby="title desc">
  <title id="title">Slytherin Crest Mark</title>
  <desc id="desc">Minimal emerald shield mark for study card header.</desc>
  <defs>
    <linearGradient id="bg" x1="0" y1="0" x2="1" y2="1">
      <stop offset="0%" stop-color="#052e2b"/>
      <stop offset="100%" stop-color="#14532d"/>
    </linearGradient>
  </defs>
  <rect x="8" y="8" width="240" height="240" rx="32" fill="#020617" stroke="#10b981" stroke-width="8"/>
  <path d="M128 34 196 62v72c0 44-31 73-68 88-37-15-68-44-68-88V62z" fill="url(#bg)" stroke="#34d399" stroke-width="6"/>
  <path d="M86 97c8-18 26-28 44-28 17 0 34 9 45 24l-18 10c-7-9-16-13-27-13-13 0-23 8-27 19-5 13-2 26 10 34 8 6 18 8 27 6v-18h-22v-19h43v52c-14 8-33 10-50 4-20-8-34-25-36-47-1-8 0-16 3-24z" fill="#bbf7d0"/>
  <text x="128" y="214" text-anchor="middle" font-family="Segoe UI, Arial, sans-serif" font-size="18" fill="#6ee7b7" letter-spacing="2">SLYTHERIN</text>
</svg>
